<svg width="1280" height="720" viewBox="0 0 1280 720" fill="none" xmlns="http://www.w3.org/2000/svg">
  <defs>
    <linearGradient id="bgSedan" x1="0" y1="0" x2="1280" y2="720" gradientUnits="userSpaceOnUse">
      <stop stop-color="#0F172A"/>
      <stop offset="1" stop-color="#1D4ED8"/>
    </linearGradient>
    <linearGradient id="roadSedan" x1="0" y1="0" x2="0" y2="220" gradientUnits="userSpaceOnUse">
      <stop stop-color="#0F172A" stop-opacity="0"/>
      <stop offset="1" stop-color="#020617" stop-opacity="0.85"/>
    </linearGradient>
    <linearGradient id="carSedan" x1="340" y1="340" x2="940" y2="540" gradientUnits="userSpaceOnUse">
      <stop stop-color="#E2E8F0"/>
      <stop offset="1" stop-color="#94A3B8"/>
    </linearGradient>
  </defs>
  <rect width="1280" height="720" fill="url(#bgSedan)"/>
  <circle cx="1090" cy="150" r="120" fill="#93C5FD" fill-opacity="0.25"/>
  <circle cx="220" cy="170" r="170" fill="#1E40AF" fill-opacity="0.35"/>
  <rect y="500" width="1280" height="220" fill="url(#roadSedan)"/>
  <path d="M240 470C320 380 420 332 590 332H760C845 332 916 358 980 420L1030 470V520H240V470Z" fill="url(#carSedan)"/>
  <path d="M440 360C482 344 530 336 590 336H760C799 336 832 342 868 356L824 430H396L440 360Z" fill="#CBD5E1"/>
  <rect x="420" y="382" width="180" height="42" rx="8" fill="#0F172A" fill-opacity="0.45"/>
  <rect x="618" y="382" width="180" height="42" rx="8" fill="#0F172A" fill-opacity="0.45"/>
  <circle cx="430" cy="520" r="62" fill="#0F172A"/>
  <circle cx="430" cy="520" r="30" fill="#94A3B8"/>
  <circle cx="845" cy="520" r="62" fill="#0F172A"/>
  <circle cx="845" cy="520" r="30" fill="#94A3B8"/>
</svg>
